<mxfile host="app.diagrams.net" modified="2024-04-09T14:05:47.629Z" agent="Mozilla/5.0 (X11; Ubuntu; Linux x86_64; rv:124.0) Gecko/20100101 Firefox/124.0" etag="UJaJWFZy6mimr3mOnwlN" version="24.2.3" type="github">
  <diagram name="Page-1" id="XlX-9rtMUSkEQd4OlaJQ">
    <mxGraphModel dx="819" dy="453" grid="1" gridSize="10" guides="1" tooltips="1" connect="1" arrows="1" fold="1" page="1" pageScale="1" pageWidth="850" pageHeight="1100" math="0" shadow="0">
      <root>
        <mxCell id="0" />
        <mxCell id="1" parent="0" />
        <mxCell id="u2swivjqMbDGmnADW4ua-1" value="&lt;div&gt;0&lt;/div&gt;&lt;div&gt;1&lt;/div&gt;&lt;div&gt;2&lt;/div&gt;&lt;div&gt;3&lt;br&gt;&lt;/div&gt;" style="rounded=0;whiteSpace=wrap;html=1;fillColor=#ffe6cc;strokeColor=#d79b00;" vertex="1" parent="1">
          <mxGeometry x="120" y="30" width="40" height="60" as="geometry" />
        </mxCell>
        <mxCell id="u2swivjqMbDGmnADW4ua-2" value="&lt;div&gt;0&lt;/div&gt;&lt;div&gt;1&lt;/div&gt;&lt;div&gt;2&lt;/div&gt;&lt;div&gt;3&lt;br&gt;&lt;/div&gt;" style="rounded=0;whiteSpace=wrap;html=1;fillColor=#dae8fc;strokeColor=#6c8ebf;" vertex="1" parent="1">
          <mxGeometry x="120" y="110" width="40" height="60" as="geometry" />
        </mxCell>
        <mxCell id="u2swivjqMbDGmnADW4ua-3" value="&lt;div&gt;Merger&lt;/div&gt;" style="rounded=0;whiteSpace=wrap;html=1;" vertex="1" parent="1">
          <mxGeometry x="180" y="70" width="50" height="60" as="geometry" />
        </mxCell>
        <mxCell id="u2swivjqMbDGmnADW4ua-4" value="" style="endArrow=classic;html=1;rounded=0;" edge="1" parent="1">
          <mxGeometry width="50" height="50" relative="1" as="geometry">
            <mxPoint x="160" y="120" as="sourcePoint" />
            <mxPoint x="180" y="120" as="targetPoint" />
          </mxGeometry>
        </mxCell>
        <mxCell id="u2swivjqMbDGmnADW4ua-5" value="" style="endArrow=classic;html=1;rounded=0;" edge="1" parent="1">
          <mxGeometry width="50" height="50" relative="1" as="geometry">
            <mxPoint x="160" y="80" as="sourcePoint" />
            <mxPoint x="180" y="80" as="targetPoint" />
          </mxGeometry>
        </mxCell>
        <mxCell id="u2swivjqMbDGmnADW4ua-7" value="&lt;div&gt;0&lt;/div&gt;&lt;div&gt;1&lt;/div&gt;&lt;div&gt;2&lt;/div&gt;&lt;div&gt;3&lt;br&gt;&lt;/div&gt;" style="rounded=0;whiteSpace=wrap;html=1;fillColor=#ffe6cc;strokeColor=#d79b00;" vertex="1" parent="1">
          <mxGeometry x="250" y="40" width="40" height="60" as="geometry" />
        </mxCell>
        <mxCell id="u2swivjqMbDGmnADW4ua-8" value="&lt;div&gt;4&lt;/div&gt;&lt;div&gt;5&lt;/div&gt;&lt;div&gt;6&lt;/div&gt;&lt;div&gt;7&lt;br&gt;&lt;/div&gt;" style="rounded=0;whiteSpace=wrap;html=1;fillColor=#dae8fc;strokeColor=#6c8ebf;" vertex="1" parent="1">
          <mxGeometry x="250" y="100" width="40" height="60" as="geometry" />
        </mxCell>
        <mxCell id="u2swivjqMbDGmnADW4ua-9" value="" style="endArrow=classic;html=1;rounded=0;" edge="1" parent="1">
          <mxGeometry width="50" height="50" relative="1" as="geometry">
            <mxPoint x="230" y="100" as="sourcePoint" />
            <mxPoint x="250" y="100" as="targetPoint" />
          </mxGeometry>
        </mxCell>
      </root>
    </mxGraphModel>
  </diagram>
</mxfile>
